<svg xmlns="http://www.w3.org/2000/svg" version="1.1" height="600" width="960"><g></g><g transform="translate(480,300)scale(1.0067113637924194,1.0067113637924194)"><text style="font-size: 10px; font-family: Impact; fill: rgb(107, 110, 207);" transform="translate(-261,116)rotate(20.000000659393137)skewX(0)scale(0.9999999995881268,0.9999999995881268)" text-anchor="middle">slow</text><text style="font-size: 10px; font-family: Impact; fill: rgb(206, 219, 156);" transform="translate(259,-32)rotate(-59.99999955470795)scale(0.9999999865388264,0.9999999865388264)" text-anchor="middle">memory</text><text style="font-size: 10px; font-family: Impact; fill: rgb(206, 109, 189);" transform="translate(53,23)rotate(20.00000065939313)scale(0.9999999995881268,0.9999999995881268)" text-anchor="middle"></text><text style="font-size: 100px; font-family: Impact; fill: rgb(222, 158, 214);" transform="translate(-239,-150)rotate(59.99999955470795)skewX(0)scale(0.9999999865388264,0.9999999865388264)" text-anchor="middle">Signs</text><text style="font-size: 100px; font-family: Impact; fill: rgb(57, 59, 121);" transform="translate(-50,-20)rotate(-20.00000065939313)scale(0.9999999995881268,0.9999999995881268)" text-anchor="middle">symptoms</text><text style="font-size: 100px; font-family: Impact; fill: rgb(82, 84, 163);" transform="translate(250,-124)rotate(-59.99999955470795)skewX(0)scale(0.9999999865388264,0.9999999865388264)" text-anchor="middle">poor</text><text style="font-size: 66px; font-family: Impact; fill: rgb(107, 110, 207);" transform="translate(151,-170)rotate(-59.99999955470795)skewX(0)scale(0.9999999865388264,0.9999999865388264)" text-anchor="middle">Air</text><text style="font-size: 66px; font-family: Impact; fill: rgb(156, 158, 222);" transform="translate(-48,-174)rotate(20.00000065939313)scale(0.9999999995881268,0.9999999995881268)" text-anchor="middle">frequent</text><text style="font-size: 66px; font-family: Impact; fill: rgb(99, 121, 57);" transform="translate(307,131)rotate(59.99999955470795)scale(0.9999999865388264,0.9999999865388264)" text-anchor="middle">pain</text><text style="font-size: 66px; font-family: Impact; fill: rgb(140, 162, 82);" transform="translate(21,24)rotate(-20.000000659393134)skewX(0)scale(0.9999999995881268,0.9999999995881268)" text-anchor="middle">lethargy</text><text style="font-size: 66px; font-family: Impact; fill: rgb(181, 207, 107);" transform="translate(-287,6)rotate(-20.000000659393137)skewX(0)scale(0.9999999995881268,0.9999999995881268)" text-anchor="middle">lower</text><text style="font-size: 66px; font-family: Impact; fill: rgb(206, 219, 156);" transform="translate(-301,-69)rotate(20.000000659393134)skewX(0)scale(0.9999999995881268,0.9999999995881268)" text-anchor="middle">Fire</text><text style="font-size: 66px; font-family: Impact; fill: rgb(140, 109, 49);" transform="translate(324,-170)rotate(59.99999955470795)skewX(0)scale(0.9999999865388264,0.9999999865388264)" text-anchor="middle">Tripa</text><text style="font-size: 66px; font-family: Impact; fill: rgb(189, 158, 57);" transform="translate(-347,-150)rotate(-59.99999955470795)scale(0.9999999865388264,0.9999999865388264)" text-anchor="middle">Water</text><text style="font-size: 66px; font-family: Impact; fill: rgb(231, 186, 82);" transform="translate(-168,146)rotate(-59.99999955470795)scale(0.9999999865388264,0.9999999865388264)" text-anchor="middle">Bagan</text><text style="font-size: 10px; font-family: Impact; fill: rgb(231, 203, 148);" transform="translate(116,-52)rotate(-20.00000065939313)scale(0.9999999995881268,0.9999999995881268)" text-anchor="middle">Ling</text><text style="font-size: 10px; font-family: Impact; fill: rgb(132, 60, 57);" transform="translate(-231,108)rotate(-20.000000659393134)skewX(0)scale(0.9999999995881268,0.9999999995881268)" text-anchor="middle">Lung</text><text style="font-size: 10px; font-family: Impact; fill: rgb(173, 73, 74);" transform="translate(-83,-86)rotate(59.99999955470795)skewX(0)scale(0.9999999865388264,0.9999999865388264)" text-anchor="middle">sighing</text><text style="font-size: 10px; font-family: Impact; fill: rgb(214, 97, 107);" transform="translate(-2,78)rotate(-20.000000659393137)skewX(0)scale(0.9999999995881268,0.9999999995881268)" text-anchor="middle">mental</text><text style="font-size: 10px; font-family: Impact; fill: rgb(231, 150, 156);" transform="translate(-234,135)rotate(20.000000659393134)skewX(0)scale(0.9999999995881268,0.9999999995881268)" text-anchor="middle">wandering</text><text style="font-size: 10px; font-family: Impact; fill: rgb(123, 65, 115);" transform="translate(-165,56)rotate(-59.99999955470795)scale(0.9999999865388264,0.9999999865388264)" text-anchor="middle">distraction</text><text style="font-size: 10px; font-family: Impact; fill: rgb(165, 81, 148);" transform="translate(42,61)rotate(-20.000000659393134)skewX(0)scale(0.9999999995881268,0.9999999995881268)" text-anchor="middle">dizziness</text><text style="font-size: 10px; font-family: Impact; fill: rgb(206, 109, 189);" transform="translate(98,64)rotate(20.00000065939313)scale(0.9999999995881268,0.9999999995881268)" text-anchor="middle">ringing</text><text style="font-size: 10px; font-family: Impact; fill: rgb(222, 158, 214);" transform="translate(-109,20)rotate(20.00000065939313)scale(0.9999999995881268,0.9999999995881268)" text-anchor="middle">ears</text><text style="font-size: 10px; font-family: Impact; fill: rgb(57, 59, 121);" transform="translate(154,41)rotate(59.99999955470795)skewX(0)scale(0.9999999865388264,0.9999999865388264)" text-anchor="middle">diffused</text><text style="font-size: 10px; font-family: Impact; fill: rgb(82, 84, 163);" transform="translate(82,31)rotate(59.99999955470795)skewX(0)scale(0.9999999865388264,0.9999999865388264)" text-anchor="middle">muscular</text><text style="font-size: 10px; font-family: Impact; fill: rgb(107, 110, 207);" transform="translate(-35,63)rotate(-59.99999955470794)skewX(0)scale(0.9999999865388264,0.9999999865388264)" text-anchor="middle">tension</text><text style="font-size: 10px; font-family: Impact; fill: rgb(156, 158, 222);" transform="translate(-206,66)rotate(-59.99999955470794)skewX(0)scale(0.9999999865388264,0.9999999865388264)" text-anchor="middle">circulation</text><text style="font-size: 10px; font-family: Impact; fill: rgb(99, 121, 57);" transform="translate(125,128)rotate(-59.99999955470795)scale(0.9999999865388264,0.9999999865388264)" text-anchor="middle">cold</text><text style="font-size: 10px; font-family: Impact; fill: rgb(140, 162, 82);" transform="translate(-255,86)rotate(-20.000000659393137)skewX(0)scale(0.9999999995881268,0.9999999995881268)" text-anchor="middle">extremities</text><text style="font-size: 10px; font-family: Impact; fill: rgb(181, 207, 107);" transform="translate(199,-5)rotate(59.99999955470795)skewX(0)scale(0.9999999865388264,0.9999999865388264)" text-anchor="middle">tremors</text><text style="font-size: 10px; font-family: Impact; fill: rgb(206, 219, 156);" transform="translate(102,35)rotate(59.99999955470795)scale(0.9999999865388264,0.9999999865388264)" text-anchor="middle">chills</text><text style="font-size: 10px; font-family: Impact; fill: rgb(140, 109, 49);" transform="translate(-114,105)rotate(59.99999955470794)skewX(0)scale(0.9999999865388264,0.9999999865388264)" text-anchor="middle">stiffness</text><text style="font-size: 10px; font-family: Impact; fill: rgb(189, 158, 57);" transform="translate(40,-118)rotate(-20.00000065939313)scale(0.9999999995881268,0.9999999995881268)" text-anchor="middle">difficulty</text><text style="font-size: 10px; font-family: Impact; fill: rgb(231, 186, 82);" transform="translate(-61,-119)rotate(-59.99999955470795)skewX(0)scale(0.9999999865388264,0.9999999865388264)" text-anchor="middle">movement</text><text style="font-size: 10px; font-family: Impact; fill: rgb(231, 203, 148);" transform="translate(143,14)rotate(20.00000065939313)scale(0.9999999995881268,0.9999999995881268)" text-anchor="middle">joints</text><text style="font-size: 10px; font-family: Impact; fill: rgb(132, 60, 57);" transform="translate(-211,121)rotate(20.000000659393137)skewX(0)scale(0.9999999995881268,0.9999999995881268)" text-anchor="middle">pins</text><text style="font-size: 10px; font-family: Impact; fill: rgb(173, 73, 74);" transform="translate(-69,135)rotate(20.000000659393134)skewX(0)scale(0.9999999995881268,0.9999999995881268)" text-anchor="middle">needles</text><text style="font-size: 10px; font-family: Impact; fill: rgb(214, 97, 107);" transform="translate(-24,66)rotate(-59.99999955470795)skewX(0)scale(0.9999999865388264,0.9999999865388264)" text-anchor="middle">sensation</text><text style="font-size: 10px; font-family: Impact; fill: rgb(231, 150, 156);" transform="translate(188,126)rotate(20.000000659393134)skewX(0)scale(0.9999999995881268,0.9999999995881268)" text-anchor="middle">starry</text><text style="font-size: 10px; font-family: Impact; fill: rgb(123, 65, 115);" transform="translate(-139,31)rotate(-59.99999955470795)skewX(0)scale(0.9999999865388264,0.9999999865388264)" text-anchor="middle">eyes</text><text style="font-size: 10px; font-family: Impact; fill: rgb(165, 81, 148);" transform="translate(-156,-121)rotate(59.99999955470795)skewX(0)scale(0.9999999865388264,0.9999999865388264)" text-anchor="middle">goose</text><text style="font-size: 10px; font-family: Impact; fill: rgb(206, 109, 189);" transform="translate(15,-28)rotate(20.00000065939313)scale(0.9999999995881268,0.9999999995881268)" text-anchor="middle">pimples</text><text style="font-size: 10px; font-family: Impact; fill: rgb(222, 158, 214);" transform="translate(-78,72)rotate(-20.000000659393134)skewX(0)scale(0.9999999995881268,0.9999999995881268)" text-anchor="middle">insomnia</text><text style="font-size: 10px; font-family: Impact; fill: rgb(57, 59, 121);" transform="translate(-24,121)rotate(-59.99999955470795)skewX(0)scale(0.9999999865388264,0.9999999865388264)" text-anchor="middle">disturbed</text><text style="font-size: 10px; font-family: Impact; fill: rgb(82, 84, 163);" transform="translate(108,147)rotate(59.99999955470795)skewX(0)scale(0.9999999865388264,0.9999999865388264)" text-anchor="middle">sleep</text><text style="font-size: 10px; font-family: Impact; fill: rgb(107, 110, 207);" transform="translate(19,-127)rotate(-20.000000659393134)skewX(0)scale(0.9999999995881268,0.9999999995881268)" text-anchor="middle">dreams</text><text style="font-size: 10px; font-family: Impact; fill: rgb(156, 158, 222);" transform="translate(149,-77)rotate(-59.99999955470795)scale(0.9999999865388264,0.9999999865388264)" text-anchor="middle">pains</text><text style="font-size: 10px; font-family: Impact; fill: rgb(99, 121, 57);" transform="translate(-201,94)rotate(-20.000000659393134)skewX(0)scale(0.9999999995881268,0.9999999995881268)" text-anchor="middle">either</text><text style="font-size: 10px; font-family: Impact; fill: rgb(140, 162, 82);" transform="translate(-186,67)rotate(-59.99999955470794)skewX(0)scale(0.9999999865388264,0.9999999865388264)" text-anchor="middle">skull</text><text style="font-size: 10px; font-family: Impact; fill: rgb(181, 207, 107);" transform="translate(-265,73)rotate(-20.00000065939313)scale(0.9999999995881268,0.9999999995881268)" text-anchor="middle">chest</text><text style="font-size: 10px; font-family: Impact; fill: rgb(206, 219, 156);" transform="translate(154,-33)rotate(-59.99999955470795)scale(0.9999999865388264,0.9999999865388264)" text-anchor="middle">jaws</text><text style="font-size: 10px; font-family: Impact; fill: rgb(140, 109, 49);" transform="translate(-77,-40)rotate(-20.00000065939313)scale(0.9999999995881268,0.9999999995881268)" text-anchor="middle">dry</text><text style="font-size: 10px; font-family: Impact; fill: rgb(189, 158, 57);" transform="translate(74,60)rotate(-59.99999955470795)skewX(0)scale(0.9999999865388264,0.9999999865388264)" text-anchor="middle">heaves</text><text style="font-size: 10px; font-family: Impact; fill: rgb(231, 186, 82);" transform="translate(230,127)rotate(20.000000659393134)skewX(0)scale(0.9999999995881268,0.9999999995881268)" text-anchor="middle">gas</text><text style="font-size: 10px; font-family: Impact; fill: rgb(231, 203, 148);" transform="translate(-308,66)rotate(59.99999955470794)skewX(0)scale(0.9999999865388264,0.9999999865388264)" text-anchor="middle">rumbling</text><text style="font-size: 10px; font-family: Impact; fill: rgb(132, 60, 57);" transform="translate(-39,105)rotate(-20.000000659393134)skewX(0)scale(0.9999999995881268,0.9999999995881268)" text-anchor="middle">sound</text><text style="font-size: 10px; font-family: Impact; fill: rgb(173, 73, 74);" transform="translate(164,-5)rotate(20.000000659393134)skewX(0)scale(0.9999999995881268,0.9999999995881268)" text-anchor="middle">abdomen</text><text style="font-size: 10px; font-family: Impact; fill: rgb(214, 97, 107);" transform="translate(-119,-90)rotate(59.99999955470795)scale(0.9999999865388264,0.9999999865388264)" text-anchor="middle">constipation</text><text style="font-size: 10px; font-family: Impact; fill: rgb(231, 150, 156);" transform="translate(-17,-120)rotate(59.99999955470794)skewX(0)scale(0.9999999865388264,0.9999999865388264)" text-anchor="middle">diarrhea</text><text style="font-size: 10px; font-family: Impact; fill: rgb(123, 65, 115);" transform="translate(-116,-110)rotate(59.99999955470795)skewX(0)scale(0.9999999865388264,0.9999999865388264)" text-anchor="middle">vomiting</text><text style="font-size: 10px; font-family: Impact; fill: rgb(165, 81, 148);" transform="translate(-38,-18)rotate(20.00000065939313)scale(0.9999999995881268,0.9999999995881268)" text-anchor="middle">itchy</text><text style="font-size: 10px; font-family: Impact; fill: rgb(206, 109, 189);" transform="translate(167,-29)rotate(-59.99999955470794)skewX(0)scale(0.9999999865388264,0.9999999865388264)" text-anchor="middle">skin</text><text style="font-size: 10px; font-family: Impact; fill: rgb(222, 158, 214);" transform="translate(186,31)rotate(-20.00000065939313)scale(0.9999999995881268,0.9999999995881268)" text-anchor="middle">intense</text><text style="font-size: 10px; font-family: Impact; fill: rgb(57, 59, 121);" transform="translate(-214,-81)rotate(59.99999955470795)skewX(0)scale(0.9999999865388264,0.9999999865388264)" text-anchor="middle">thirst</text><text style="font-size: 10px; font-family: Impact; fill: rgb(82, 84, 163);" transform="translate(-61,-2)rotate(-20.00000065939313)scale(0.9999999995881268,0.9999999995881268)" text-anchor="middle">bitter</text><text style="font-size: 10px; font-family: Impact; fill: rgb(107, 110, 207);" transform="translate(-6,-16)rotate(-20.000000659393134)skewX(0)scale(0.9999999995881268,0.9999999995881268)" text-anchor="middle">taste</text><text style="font-size: 10px; font-family: Impact; fill: rgb(156, 158, 222);" transform="translate(103,-60)rotate(-20.000000659393134)skewX(0)scale(0.9999999995881268,0.9999999995881268)" text-anchor="middle">mouthfever</text><text style="font-size: 10px; font-family: Impact; fill: rgb(99, 121, 57);" transform="translate(159,133)rotate(-59.99999955470795)skewX(0)scale(0.9999999865388264,0.9999999865388264)" text-anchor="middle">sleeplessness</text><text style="font-size: 10px; font-family: Impact; fill: rgb(140, 162, 82);" transform="translate(-84,-120)rotate(-20.00000065939313)scale(0.9999999995881268,0.9999999995881268)" text-anchor="middle">strong</text><text style="font-size: 10px; font-family: Impact; fill: rgb(181, 207, 107);" transform="translate(-41,-131)rotate(59.99999955470795)skewX(0)scale(0.9999999865388264,0.9999999865388264)" text-anchor="middle">odor</text><text style="font-size: 10px; font-family: Impact; fill: rgb(206, 219, 156);" transform="translate(58,-47)rotate(20.00000065939313)scale(0.9999999995881268,0.9999999995881268)" text-anchor="middle">urine</text><text style="font-size: 10px; font-family: Impact; fill: rgb(140, 109, 49);" transform="translate(-198,-33)rotate(-20.000000659393134)skewX(0)scale(0.9999999995881268,0.9999999995881268)" text-anchor="middle">stool</text><text style="font-size: 10px; font-family: Impact; fill: rgb(189, 158, 57);" transform="translate(217,83)rotate(59.99999955470795)scale(0.9999999865388264,0.9999999865388264)" text-anchor="middle">headaches</text><text style="font-size: 10px; font-family: Impact; fill: rgb(231, 186, 82);" transform="translate(205,115)rotate(59.99999955470795)skewX(0)scale(0.9999999865388264,0.9999999865388264)" text-anchor="middle">nausea</text><text style="font-size: 10px; font-family: Impact; fill: rgb(231, 203, 148);" transform="translate(-89,-148)rotate(20.00000065939313)scale(0.9999999995881268,0.9999999995881268)" text-anchor="middle">discomfort</text><text style="font-size: 10px; font-family: Impact; fill: rgb(132, 60, 57);" transform="translate(62,158)rotate(-59.99999955470794)skewX(0)scale(0.9999999865388264,0.9999999865388264)" text-anchor="middle">liver</text><text style="font-size: 10px; font-family: Impact; fill: rgb(173, 73, 74);" transform="translate(-16,-51)rotate(-20.00000065939313)scale(0.9999999995881268,0.9999999995881268)" text-anchor="middle">gail</text><text style="font-size: 10px; font-family: Impact; fill: rgb(214, 97, 107);" transform="translate(-44,-104)rotate(59.99999955470795)scale(0.9999999865388264,0.9999999865388264)" text-anchor="middle">bladder</text><text style="font-size: 10px; font-family: Impact; fill: rgb(231, 150, 156);" transform="translate(-130,-140)rotate(-59.99999955470795)skewX(0)scale(0.9999999865388264,0.9999999865388264)" text-anchor="middle">regions</text><text style="font-size: 10px; font-family: Impact; fill: rgb(123, 65, 115);" transform="translate(-239,146)rotate(20.000000659393134)skewX(0)scale(0.9999999995881268,0.9999999995881268)" text-anchor="middle">pale</text><text style="font-size: 10px; font-family: Impact; fill: rgb(165, 81, 148);" transform="translate(29,36)rotate(-20.00000065939313)scale(0.9999999995881268,0.9999999995881268)" text-anchor="middle">complexion</text><text style="font-size: 10px; font-family: Impact; fill: rgb(206, 109, 189);" transform="translate(-138,-92)rotate(20.00000065939313)scale(0.9999999995881268,0.9999999995881268)" text-anchor="middle">gums</text><text style="font-size: 10px; font-family: Impact; fill: rgb(222, 158, 214);" transform="translate(-163,-151)rotate(20.000000659393134)skewX(0)scale(0.9999999995881268,0.9999999995881268)" text-anchor="middle">excess</text><text style="font-size: 10px; font-family: Impact; fill: rgb(57, 59, 121);" transform="translate(-118,-26)rotate(59.99999955470794)skewX(0)scale(0.9999999865388264,0.9999999865388264)" text-anchor="middle">mucus</text><text style="font-size: 10px; font-family: Impact; fill: rgb(82, 84, 163);" transform="translate(195,-148)rotate(-59.99999955470795)skewX(0)scale(0.9999999865388264,0.9999999865388264)" text-anchor="middle">appetite</text><text style="font-size: 10px; font-family: Impact; fill: rgb(107, 110, 207);" transform="translate(-223,-90)rotate(-59.99999955470795)skewX(0)scale(0.9999999865388264,0.9999999865388264)" text-anchor="middle">low</text><text style="font-size: 10px; font-family: Impact; fill: rgb(156, 158, 222);" transform="translate(146,82)rotate(59.99999955470795)skewX(0)scale(0.9999999865388264,0.9999999865388264)" text-anchor="middle">body</text><text style="font-size: 10px; font-family: Impact; fill: rgb(99, 121, 57);" transform="translate(-115,150)rotate(-20.000000659393134)skewX(0)scale(0.9999999995881268,0.9999999995881268)" text-anchor="middle">temperature</text><text style="font-size: 10px; font-family: Impact; fill: rgb(140, 162, 82);" transform="translate(192,147)rotate(20.000000659393134)skewX(0)scale(0.9999999995881268,0.9999999995881268)" text-anchor="middle">indigestion</text><text style="font-size: 10px; font-family: Impact; fill: rgb(181, 207, 107);" transform="translate(228,-49)rotate(59.99999955470795)skewX(0)scale(0.9999999865388264,0.9999999865388264)" text-anchor="middle">digestion</text><text style="font-size: 10px; font-family: Impact; fill: rgb(206, 219, 156);" transform="translate(54,-199)rotate(59.99999955470795)skewX(0)scale(0.9999999865388264,0.9999999865388264)" text-anchor="middle">dicomfort</text><text style="font-size: 10px; font-family: Impact; fill: rgb(140, 109, 49);" transform="translate(40,161)rotate(-20.000000659393137)skewX(0)scale(0.9999999995881268,0.9999999995881268)" text-anchor="middle">back</text><text style="font-size: 10px; font-family: Impact; fill: rgb(189, 158, 57);" transform="translate(-91,95)rotate(20.00000065939313)scale(0.9999999995881268,0.9999999995881268)" text-anchor="middle">kidney</text><text style="font-size: 10px; font-family: Impact; fill: rgb(231, 186, 82);" transform="translate(232,-72)rotate(59.99999955470795)skewX(0)scale(0.9999999865388264,0.9999999865388264)" text-anchor="middle">region</text><text style="font-size: 10px; font-family: Impact; fill: rgb(231, 203, 148);" transform="translate(-136,117)rotate(59.99999955470795)scale(0.9999999865388264,0.9999999865388264)" text-anchor="middle">fluid</text><text style="font-size: 10px; font-family: Impact; fill: rgb(132, 60, 57);" transform="translate(-155,-175)rotate(59.99999955470795)skewX(0)scale(0.9999999865388264,0.9999999865388264)" text-anchor="middle">retentiion</text><text style="font-size: 10px; font-family: Impact; fill: rgb(173, 73, 74);" transform="translate(258,99)rotate(20.00000065939313)scale(0.9999999995881268,0.9999999995881268)" text-anchor="middle">puffiness</text><text style="font-size: 10px; font-family: Impact; fill: rgb(214, 97, 107);" transform="translate(248,136)rotate(-59.99999955470795)skewX(0)scale(0.9999999865388264,0.9999999865388264)" text-anchor="middle">sleepiness</text><text style="font-size: 10px; font-family: Impact; fill: rgb(231, 150, 156);" transform="translate(257,-96)rotate(-59.99999955470795)skewX(0)scale(0.9999999865388264,0.9999999865388264)" text-anchor="middle">dullness</text><text style="font-size: 100px; font-family: Impact; fill: rgb(123, 65, 115);" transform="translate(188,95)rotate(-20.000000659393134)skewX(0)scale(0.9999999995881268,0.9999999995881268)" text-anchor="middle">disorder</text></g></svg>